<?xml version="1.0" standalone="no"?>
<!DOCTYPE svg PUBLIC "-//W3C//DTD SVG 20010904//EN"
 "http://www.w3.org/TR/2001/REC-SVG-20010904/DTD/svg10.dtd">
<svg version="1.0" xmlns="http://www.w3.org/2000/svg"
 width="512.000000pt" height="512.000000pt" viewBox="0 0 512.000000 512.000000"
 preserveAspectRatio="xMidYMid meet">
<metadata>
Created by potrace 1.14, written by Peter Selinger 2001-2017
</metadata>
<g transform="translate(0.000000,512.000000) scale(0.100000,-0.100000)"
fill="#000000" stroke="none">
<path d="M2405 4910 c-394 -54 -738 -306 -907 -666 -48 -104 -79 -204 -104
-344 -10 -53 -11 -1243 -1 -1335 43 -417 313 -783 704 -954 83 -36 191 -68
258 -76 28 -4 66 -10 85 -14 39 -8 215 -7 270 3 280 46 494 152 675 333 191
191 316 448 341 703 4 41 8 345 8 675 0 640 -3 690 -51 850 -28 96 -98 241
-156 328 -63 94 -220 247 -320 312 -237 154 -530 222 -802 185z"/>
<path d="M884 2790 c-45 -29 -59 -70 -56 -168 14 -539 313 -1069 773 -1375
246 -163 549 -268 827 -286 9 -1 12 -60 12 -260 l0 -260 -221 -3 -221 -3 -29
-32 c-51 -58 -51 -108 0 -166 l29 -32 555 -3 555 -2 30 25 c59 49 64 127 11
180 l-29 30 -220 3 -220 3 0 259 0 258 63 7 c657 73 1218 512 1445 1130 69
189 112 443 103 616 -1 23 -50 88 -69 90 -4 0 -19 3 -34 5 -37 6 -93 -19 -113
-50 -11 -16 -18 -55 -21 -113 -3 -48 -9 -119 -15 -158 -12 -87 -58 -277 -70
-290 -5 -5 -9 -16 -9 -25 0 -25 -96 -216 -147 -294 -66 -100 -107 -150 -193
-236 -101 -101 -130 -126 -230 -192 -342 -227 -756 -305 -1150 -218 -556 124
-990 546 -1129 1098 -29 113 -37 172 -45 327 -2 33 -8 72 -14 87 -24 59 -113
84 -168 48z"/>
</g>
</svg>
